<svg width="59.9" height="59.9" xmlns:cc="http://creativecommons.org/ns#" xmlns:dc="http://purl.org/dc/elements/1.1/" xmlns:rdf="http://www.w3.org/1999/02/22-rdf-syntax-ns#" space="preserve" version="1.1" viewBox="0 0 59.9 59.9" xmlns="http://www.w3.org/2000/svg">
 <g transform="translate(-2.602 -.1)">
  <g transform="translate(-15.298 .1)">
   <path class="st1" d="m67.8 10.3c0 7.8-20 16.3-20.5 27.6-0.5 9.8 7.8 17.1 24.6 22h0.5c3 0 5.4-2.4 5.4-5.4v-49.1c0-3-2.4-5.4-5.4-5.4h-22.2c5.2 1 17.6 4 17.6 10.3z" fill="#4fc3f7"/>
   <path class="st1" d="m25.2 38.2c3.7-11.4 16.3-16.6 24.6-20.5 8.1-3.8 22.8-9.8-3-17.7h-23.5c-3 0-5.4 2.4-5.4 5.4v49.1c0 3 2.4 5.4 5.4 5.4h7.6c-3.6-3.4-9.3-10.7-5.7-21.7z" fill="#4fc3f7"/>
   <path class="st0" d="m47.3 37.9c0.5-11.3 20.5-19.8 20.5-27.6 0-6.3-12.4-9.3-17.6-10.3h-3.4c25.8 7.9 11.1 13.9 2.9 17.7-8.2 3.9-20.9 9.1-24.6 20.5-3.5 11 2.2 18.4 5.8 21.7h41c-16.9-4.9-25.1-12.2-24.6-22z" fill="#01579b"/>
  </g>
 </g>
</svg>
